<?xml version="1.0" encoding="iso-8859-1"?>
<!-- Generator: Adobe Illustrator 19.0.0, SVG Export Plug-In . SVG Version: 6.00 Build 0)  -->
<svg data-bx-workspace="master" xmlns="http://www.w3.org/2000/svg" xmlns:bx="https://boxy-svg.com" version="1.1" id="Layer_1" x="0px" y="0px" viewBox="0 0 485 485" width="16px" height="16px">
<defs></defs>
<path d="M413.974,71.026C368.171,25.225,307.274,0,242.5,0S116.829,25.225,71.026,71.026C25.225,116.829,0,177.726,0,242.5
		s25.225,125.671,71.026,171.474C116.829,459.775,177.726,485,242.5,485s125.671-25.225,171.474-71.026
		C459.775,368.171,485,307.274,485,242.5S459.775,116.829,413.974,71.026z M242.5,455C125.327,455,30,359.673,30,242.5
		S125.327,30,242.5,30S455,125.327,455,242.5S359.673,455,242.5,455z" style="fill: rgb(0, 160, 238);"></path>
<g transform="matrix(1.195137, 0, 0, 1.136645, -13.213869, -25.6175)">
<path style="fill: rgb(0, 160, 238);" d="M 155.924 335.554 L 155.358 131.256 L 336.754 235.137 L 155.924 335.554 Z"></path>
</g>
</svg>
