<?xml version="1.0" encoding="iso-8859-1"?>
<!-- Generator: Adobe Illustrator 16.0.0, SVG Export Plug-In . SVG Version: 6.00 Build 0)  -->
<!DOCTYPE svg PUBLIC "-//W3C//DTD SVG 1.1//EN" "http://www.w3.org/Graphics/SVG/1.1/DTD/svg11.dtd">
<svg version="1.1" id="Capa_1" xmlns="http://www.w3.org/2000/svg" xmlns:xlink="http://www.w3.org/1999/xlink" x="0px" y="0px"
	 width="16px" height="16px" viewBox="0 0 612 612" xml:space="preserve">
<g>
<path d="M 40.222 495.901 L 39.695 246.726 C 39.669 234.466 50.872 226.177 60.953 230.995 L 263.823 327.964 C 269.428 330.644 273.07 336.797 273.084 343.613 L 273.612 592.789 C 273.637 605.05 262.435 613.338 252.352 608.519 L 49.484 511.551 C 43.877 508.872 40.236 502.719 40.222 495.901 Z M 559.126 228.796 C 567.172 228.774 574.394 236.012 574.414 245.838 L 574.941 495.012 C 574.956 501.829 571.34 508.003 565.745 510.71 L 363.29 608.751 C 361.291 609.718 359.246 610.169 357.253 610.176 C 349.205 610.196 341.983 602.959 341.965 593.135 L 341.437 343.959 C 341.422 337.142 345.039 330.968 350.634 328.261 L 553.089 230.221 C 555.085 229.252 557.132 228.802 559.126 228.796 Z M 307.115 17.182 C 309.224 17.176 311.334 17.659 313.307 18.631 L 543.941 123.84 C 556.05 129.808 556.09 149.002 544.008 155.034 L 313.819 261.371 C 311.852 262.354 309.743 262.848 307.634 262.854 C 305.525 262.86 303.414 262.377 301.44 261.405 L 75.936 154.322 C 63.827 148.354 63.787 129.159 75.869 123.128 L 300.928 18.664 C 302.896 17.682 305.005 17.187 307.115 17.182 Z" style="stroke: rgb(0, 0, 0); fill: rgb(255, 255, 255);"></path>
</g>
</svg>
