<?xml version="1.0" encoding="iso-8859-1"?>
<!-- Generator: Adobe Illustrator 16.0.0, SVG Export Plug-In . SVG Version: 6.00 Build 0)  -->
<!DOCTYPE svg PUBLIC "-//W3C//DTD SVG 1.1//EN" "http://www.w3.org/Graphics/SVG/1.1/DTD/svg11.dtd">
<svg version="1.1" id="Capa_1" xmlns="http://www.w3.org/2000/svg" xmlns:xlink="http://www.w3.org/1999/xlink" x="0px" y="0px"
	 width="16px" height="16px" viewBox="0 0 507.177 507.177" fill="#0082da"
	 xml:space="preserve">
<g>
<path d="M 374.107 437.586 C 385.385 437.586 398.626 429.048 403.449 417.413 L 402.625 181.578 L 403.291 123.871 C 403.291 106.737 381.956 86.223 367.315 86.223 L 130.246 87.012 L 117.736 47.992 C 115.945 42.503 111.447 38.872 106.423 38.872 L 12.335 38.872 C 9.117 38.872 2.578 39.581 0.302 42.258 C -1.968 44.935 -3.204 62.99 -3.634 63.028 L -5.963 123.725 L -8.528 401.175 C -8.528 418.31 13.962 438.001 28.603 438.001 M 39.594 396.269 L 41.233 128.472 L 368.213 129.197 C 369.501 129.197 371.197 396.721 371.197 396.721 L 39.594 396.269 Z" style=""></path>
</g>
</svg>
