<?xml version="1.0" encoding="iso-8859-1"?>
<svg data-bx-workspace="master" xmlns="http://www.w3.org/2000/svg" xmlns:bx="https://boxy-svg.com" version="1.1" id="Layer_1" x="0px" y="0px" width="16px" height="16px" viewBox="0 0 512 512">
<defs></defs>
<rect x="189.715" y="275.667" width="25.862" height="164.07" style="fill:rgb(255, 255, 255); stroke:rgb(0, 0, 0); stroke-width:2px;" transform="matrix(1, 0, 0.745111, 1, -216.098816, -29.7024)"></rect>
<rect x="189.715" y="275.667" width="25.862" height="164.07" style="fill:rgb(255, 255, 255); stroke:rgb(0, 0, 0); stroke-width:2px;" transform="matrix(1, 0, 0.745111, 1, -88.540108, -191.804398)"></rect>
<rect x="189.715" y="275.667" width="25.862" height="164.07" style="fill:rgb(255, 255, 255); stroke:rgb(0, 0, 0); stroke-width:2px;" transform="matrix(1, 0, 0.745111, -1, -225.602439, 525.842834)"></rect>
<rect x="-189.715" y="-275.667" width="25.862" height="164.07" style="fill:rgb(255, 255, 255); stroke:rgb(0, 0, 0); stroke-width:2px;" transform="matrix(1, 0, 0.745111, -1, 444.638969, 134.745605)"></rect>
<circle xmlns="http://www.w3.org/2000/svg" cx="443.139" cy="265.786" r="30" style="fill:rgb(255, 255, 255); stroke:rgb(255, 255, 255); stroke-width:1px;" transform="matrix(1.65985, 0, 0, 1.6961, -294.490082, -203.765656)"></circle>
<circle xmlns="http://www.w3.org/2000/svg" cx="443.139" cy="265.786" r="30" style="fill:rgb(255, 255, 255); stroke:rgb(255, 255, 255); stroke-width:1px;" transform="matrix(1.65985, 0, 0, 1.6961, -418.091553, -360.367645)"></circle>
<circle xmlns="http://www.w3.org/2000/svg" cx="443.139" cy="265.786" r="30" style="fill:rgb(255, 255, 255); stroke:rgb(255, 255, 255); stroke-width:1px;" transform="matrix(1.65985, 0, 0, 1.6961, -542.203552, -210.866867)"></circle>
<circle xmlns="http://www.w3.org/2000/svg" cx="443.139" cy="265.786" r="30" style="fill:rgb(255, 255, 255); stroke:rgb(255, 255, 255); stroke-width:1px;" transform="matrix(1.65985, 0, 0, 1.6961, -418.008301, -32.335659)"></circle>
<circle xmlns="http://www.w3.org/2000/svg" cx="443.139" cy="265.786" r="30" style="fill:rgb(255, 255, 255); stroke:rgb(255, 255, 255); stroke-width:1px;" transform="matrix(1.65985, 0, 0, 1.6961, -671.28833, -36.486053)"></circle>
</svg>
