<?xml version="1.0" encoding="iso-8859-1"?>
<!-- Generator: Adobe Illustrator 16.0.0, SVG Export Plug-In . SVG Version: 6.00 Build 0)  -->
<!DOCTYPE svg PUBLIC "-//W3C//DTD SVG 1.1//EN" "http://www.w3.org/Graphics/SVG/1.1/DTD/svg11.dtd">
<svg version="1.1" id="Capa_1" xmlns="http://www.w3.org/2000/svg" xmlns:xlink="http://www.w3.org/1999/xlink" x="0px" y="0px"
	 width="16px" height="16px" viewBox="0 0 507.177 507.177" fill="#0082da"
	 xml:space="preserve">
<g>
<path d="M 382.237 429.716 C 393.515 429.716 406.756 421.178 411.579 409.543 L 505.394 201.754 C 511.009 189.113 502.846 181.578 488.158 181.578 L 402.625 181.578 L 403.291 123.871 C 403.291 106.737 381.956 86.223 367.315 86.223 L 130.246 87.012 L 117.736 47.992 C 115.945 42.503 111.447 38.872 106.423 38.872 L 12.335 38.872 C 9.117 38.872 2.578 39.581 0.302 42.258 C -1.968 44.935 -3.204 62.99 -3.634 63.028 L -5.963 123.725 L -11.465 434.834 C -11.465 451.969 11.025 471.66 25.666 471.66 M 369.209 181.585 L 102.596 182.195 C 93.074 182.195 86.884 183.981 82.12 195.149 L 32.648 366.813 L 33.496 366.161 C 32.207 366.161 32.957 367.734 32.957 366.226 L 40.723 131.854 L 58.645 131.556 L 96.408 130.63 L 112.648 129.933 C 114.439 135.423 121.577 129.197 126.601 129.197 L 366.87 129.197 C 368.158 129.197 369.21 130.428 369.21 131.937 L 369.21 181.585 L 369.209 181.585 Z" style=""></path>
<polygon style="fill:white;" points="32.95600128173828 366.052001953125 79.38400268554688 203.22900390625 83.61000061035156 191.74000549316406 92.05400085449219 184.8560028076172 102.69499969482422 182.1929931640625 368.9809875488281 180.97300720214844 369.125 128.81199645996094 121.4469985961914 130.0489959716797 41.012001037597656 130.28199768066406"></polygon>
</g>
</svg>
