<?xml version="1.0" encoding="iso-8859-1"?>
<!-- Generator: Adobe Illustrator 19.0.0, SVG Export Plug-In . SVG Version: 6.00 Build 0)  -->
<svg version="1.1" id="Layer_1" xmlns="http://www.w3.org/2000/svg" xmlns:xlink="http://www.w3.org/1999/xlink" x="0px" y="0px"
	 width="16px" height="16px" viewBox="0 0 512 512" xml:space="preserve">
<g>
<g transform="matrix(0.961913, 0, 0, -1.179496, 9.970757, 469.996307)" style=""><g><path d="M 147.43 146.09 L 132.475 165.79 C 132.256 167.943 128 189.789 128 192 C 128 227.349 156.651 256 192 256 C 198.126 256 204.044 255.121 209.653 253.515 L 260.303 296.929 C 257.534 304.088 256 311.863 256 320 C 256 355.349 284.651 384 320 384 C 355.349 384 384 355.349 384 320 C 384 308.369 380.883 297.474 375.461 288.076 L 424.928 230.364 C 432.088 233.133 439.862 234.667 447.999 234.667 C 483.348 234.667 511.999 206.016 511.999 170.667 C 511.999 135.318 483.348 106.667 447.999 106.667 C 412.65 106.667 383.999 135.318 383.999 170.667 C 383.999 182.298 387.116 193.193 392.538 202.591 L 343.071 260.303 C 335.912 257.534 328.137 256 320 256 C 308.369 256 297.474 259.117 288.075 264.539 L 245.114 227.716 C 251.987 217.514 256 205.227 256 192 C 256 156.651 227.349 128 192 128 C 174.666 128 158.954 134.9 147.43 146.09 Z" style="fill: rgb(255, 255, 255); stroke: rgb(0, 0, 0); stroke-width: 19.2166px;"></path></g></g>
<g transform="matrix(0.961913, 0, 0, -1.090578, -113.327057, 574.570557)" style=""><g style="" transform="matrix(1, 0, 0, 1.081533, 0, -41.679234)"><path d="M 147.43 146.09 L 132.475 165.79 C 132.256 167.943 128 189.789 128 192 C 128 227.349 156.651 256 192 256 C 198.126 256 204.044 255.121 209.653 253.515 L 260.303 296.929 C 257.534 304.088 256 311.863 256 320 C 256 355.349 284.651 384 320 384 C 355.349 384 384 355.349 384 320 C 384 308.369 380.883 297.474 375.461 288.076 L 424.928 230.364 C 432.088 233.133 439.862 234.667 447.999 234.667 C 483.348 234.667 511.999 206.016 511.999 170.667 C 511.999 135.318 483.348 106.667 447.999 106.667 C 412.65 106.667 383.999 135.318 383.999 170.667 C 383.999 182.298 387.116 193.193 392.538 202.591 L 343.071 260.303 C 335.912 257.534 328.137 256 320 256 C 308.369 256 297.474 259.117 288.075 264.539 L 245.114 227.716 C 251.987 217.514 256 205.227 256 192 C 256 156.651 227.349 128 192 128 C 174.666 128 158.954 134.9 147.43 146.09 Z" style="stroke-width: 19.2166px; stroke: rgb(0, 0, 0); fill: rgb(255, 255, 255);"></path></g></g>
</g>
</svg>
