<?xml version="1.0" encoding="iso-8859-1"?>
<!-- Generator: Adobe Illustrator 19.0.0, SVG Export Plug-In . SVG Version: 6.00 Build 0)  -->
<svg version="1.1" id="Layer_1" xmlns="http://www.w3.org/2000/svg" xmlns:xlink="http://www.w3.org/1999/xlink" x="0px" y="0px"
	 viewBox="0 0 485 485" xml:space="preserve" width="16px" height="16px">
<g>
<polyline style="stroke: rgb(0, 0, 0); stroke-width: 0px; paint-order: stroke; fill: rgb(0, 160, 238);" points="81.175 69.148 450.911 241.231 465.052 162.922 428.414 90.037 379.947 48.41 325.875 25.182 260.591 10.233 162.282 17.444"></polyline>
<polyline style="stroke: rgb(0, 0, 0); stroke-width: 0px; fill: rgb(0, 160, 238);" points="141.219 273.187 472.289 461.846 485.12 375.995 452.297 296.088 408.877 250.452 360.436 224.986 301.951 208.597 213.88 216.503" transform="matrix(-0.505071, 0.863078, -0.863078, -0.505071, 760.664545, 234.242452)"></polyline>
<polyline style="stroke: rgb(0, 0, 0); stroke-width: 0px; fill: rgb(0, 160, 238);" points="-53.004 202.796 293.376 391.665 306.623 305.717 272.299 225.722 226.895 180.035 176.238 154.541 115.079 138.134 22.98 146.048" transform="matrix(-0.496304, -0.868149, 0.868149, -0.496304, -40.226676, 506.459672)"></polyline>
<path d="M413.974,71.026C368.171,25.225,307.274,0,242.5,0S116.829,25.225,71.026,71.026C25.225,116.829,0,177.726,0,242.5
		s25.225,125.671,71.026,171.474C116.829,459.775,177.726,485,242.5,485s125.671-25.225,171.474-71.026
		C459.775,368.171,485,307.274,485,242.5S459.775,116.829,413.974,71.026z M242.5,455C125.327,455,30,359.673,30,242.5
		S125.327,30,242.5,30S455,125.327,455,242.5S359.673,455,242.5,455z" style="fill: rgb(0, 160, 238);"></path>
</g>
</svg>
