<svg xmlns="http://www.w3.org/2000/svg" xmlns:xlink="http://www.w3.org/1999/xlink" width="64" height="64" preserveAspectRatio="xMidYMid meet" viewBox="0 0 64 64" style="-ms-transform: rotate(360deg); -webkit-transform: rotate(360deg); transform: rotate(360deg);"><path d="M63.792 56.915a6.876 6.876 0 0 1-6.875 6.876H6.875A6.876 6.876 0 0 1 0 56.915V6.875A6.878 6.878 0 0 1 6.875 0h50.042a6.877 6.877 0 0 1 6.875 6.875v50.04z" fill="#37b34a"/><path d="M53.867 14.14a4.656 4.656 0 0 0-6.562.514l-20.04 23.437l-10.781-9a4.248 4.248 0 1 0-5.447 6.519l14.444 12.06a4.223 4.223 0 0 0 3.235.946A4.654 4.654 0 0 0 31.895 47l22.483-26.3a4.659 4.659 0 0 0-.515-6.562" fill="#f4f4f4"/><rect x="0" y="0" width="64" height="64" fill="rgba(0, 0, 0, 0)" /></svg>