<?xml version="1.0" encoding="UTF-8"?>
<svg xmlns="http://www.w3.org/2000/svg" xmlns:xlink="http://www.w3.org/1999/xlink" viewBox="90 230 400 400" version="1.1" width="16px" height="16px">
<g id="surface1">
<path style=" stroke:none;fill-rule:evenodd;fill:#0070da;fill-opacity:1;" d="M 288.375 235.433594 C 395.800781 235.433594 482.886719 322.519531 482.886719 429.945313 C 482.886719 537.371094 395.800781 624.457031 288.375 624.457031 C 180.949219 624.457031 93.863281 537.371094 93.863281 429.945313 C 93.863281 322.519531 180.949219 235.433594 288.375 235.433594 "/>
<path style=" stroke:none;fill-rule:evenodd;fill:rgb(100%,100%,100%);fill-opacity:1;" d="M 332.148438 531.980469 C 357.441406 545.613281 382.027344 548.355469 391.832031 533.125 C 411.207031 503.023438 383.050781 430.160156 328.941406 369.109375 C 274.828125 308.058594 215.25 282.96875 195.871094 313.070313 C 176.492188 343.175781 204.648438 418.109375 258.761719 479.164063 C 260.183594 480.765625 261.613281 482.351563 263.054688 483.917969 L 267.617188 490.449219 C 274.46875 500.03125 286.253906 520.128906 295.25 513.632813 C 304.242188 507.140625 279.703125 495.128906 273.238281 487.378906 C 269.710938 483.152344 265.605469 479.34375 261.898438 475.125 C 211.214844 417.433594 183.804688 345.53125 201.957031 317.085938 C 220.105469 288.640625 276.945313 315.457031 327.628906 373.148438 C 378.3125 430.835938 404.6875 499.628906 386.535156 528.074219 C 377.273438 542.589844 357.523438 544.011719 332.148438 531.980469 "/>
<path style=" stroke:none;fill-rule:evenodd;fill:rgb(100%,0%,0%);fill-opacity:1;" d="M 124.078125 604.96875 L 124.203125 599.304688 C 264.027344 458.445313 332.726563 456.824219 448.152344 356.425781 C 333.1875 432.925781 166.019531 432.902344 74.582031 489.75 L 70.148438 487.648438 C 202.578125 400.34375 433.472656 392.09375 543.125 251.785156 C 485.746094 398.878906 282.785156 447.539063 124.078125 604.96875 "/>
<path style=" stroke:none;fill-rule:evenodd;fill:rgb(100%,100%,100%);fill-opacity:1;" d="M 132.113281 392.09375 L 157.652344 392.09375 L 183.960938 436.621094 L 183.960938 399.527344 L 176.53125 392.09375 L 200.949219 392.09375 L 194.441406 398.601563 L 194.441406 454.347656 L 200.753906 465.035156 L 169.589844 465.035156 L 141.515625 417.519531 L 141.515625 456.503906 L 150.042969 465.035156 L 123.6875 465.035156 L 132.113281 456.609375 L 132.113281 401.609375 L 126.488281 392.09375 Z M 132.113281 392.09375 "/>
<path style=" stroke:none;fill-rule:evenodd;fill:rgb(100%,100%,100%);fill-opacity:1;" d="M 240.535156 392.09375 L 268.316406 392.09375 L 296.226563 465.035156 L 255.386719 465.035156 L 262.457031 457.960938 L 258.941406 448.417969 L 235.109375 448.417969 L 232.546875 457.667969 L 237.765625 465.035156 L 213.488281 465.035156 L 222.949219 455.570313 L 238.546875 399.261719 L 231.375 392.09375 Z M 255.328125 438.609375 L 245.335938 411.492188 L 237.828125 438.609375 Z M 255.328125 438.609375 "/>
<path style=" stroke:none;fill-rule:evenodd;fill:rgb(100%,100%,100%);fill-opacity:1;" d="M 405.691406 392.09375 L 433.472656 392.09375 L 461.386719 465.035156 L 420.542969 465.035156 L 427.617188 457.960938 L 424.101563 448.417969 L 400.269531 448.417969 L 397.707031 457.667969 L 402.925781 465.035156 L 378.644531 465.035156 L 388.109375 455.570313 L 403.707031 399.261719 L 396.535156 392.09375 Z M 420.488281 438.609375 L 410.496094 411.492188 L 402.984375 438.609375 Z M 420.488281 438.609375 "/>
<path style=" stroke:none;fill-rule:evenodd;fill:rgb(100%,100%,100%);fill-opacity:1;" d="M 310.167969 445.859375 L 314.921875 450.613281 C 326.496094 459.578125 348.941406 459.011719 348.941406 450.335938 C 348.941406 439.535156 308.847656 442.464844 308.847656 414.679688 C 308.847656 401.140625 320.089844 392.5 337.507813 392.09375 C 345.050781 392.09375 353.054688 394.726563 360.792969 395.433594 L 365.511719 392.09375 L 365.511719 411.265625 L 363.027344 408.78125 L 363.027344 408.785156 C 357.59375 404.964844 351.40625 402.074219 343.3125 401.539063 C 336.171875 401.132813 331.710938 403.214844 331.710938 408.023438 C 331.710938 414.875 342.015625 415.628906 352.183594 420.652344 C 362.351563 425.671875 373.828125 434.800781 373.683594 444.878906 C 373.683594 458.054688 357.128906 467.644531 339.558594 468.082031 C 331.257813 468.328125 325.039063 467.042969 319.644531 463.421875 L 310.167969 470.136719 Z M 310.167969 445.859375 "/>
<path style=" stroke:none;fill-rule:evenodd;fill:rgb(100%,100%,100%);fill-opacity:1;" d="M 409.816406 521.910156 C 410.691406 521.910156 411.398438 522.621094 411.398438 523.496094 C 411.398438 524.367188 410.691406 525.078125 409.816406 525.078125 C 408.941406 525.078125 408.234375 524.367188 408.234375 523.496094 C 408.234375 522.621094 408.941406 521.910156 409.816406 521.910156 "/>
<path style=" stroke:none;fill-rule:evenodd;fill:rgb(100%,100%,100%);fill-opacity:1;" d="M 424.96875 531.414063 C 425.992188 531.414063 426.824219 532.246094 426.824219 533.273438 C 426.824219 534.296875 425.992188 535.128906 424.96875 535.128906 C 423.941406 535.128906 423.109375 534.296875 423.109375 533.273438 C 423.109375 532.246094 423.941406 531.414063 424.96875 531.414063 "/>
<path style=" stroke:none;fill-rule:evenodd;fill:rgb(100%,100%,100%);fill-opacity:1;" d="M 413.535156 531.6875 C 414.5625 531.6875 415.394531 532.519531 415.394531 533.546875 C 415.394531 534.574219 414.5625 535.40625 413.535156 535.40625 C 412.507813 535.40625 411.675781 534.574219 411.675781 533.546875 C 411.675781 532.519531 412.507813 531.6875 413.535156 531.6875 "/>
<path style=" stroke:none;fill-rule:evenodd;fill:rgb(100%,100%,100%);fill-opacity:1;" d="M 430.957031 487.824219 C 432.214844 487.824219 433.234375 488.839844 433.234375 490.097656 C 433.234375 491.355469 432.214844 492.375 430.957031 492.375 C 429.699219 492.375 428.683594 491.355469 428.683594 490.097656 C 428.683594 488.839844 429.699219 487.824219 430.957031 487.824219 "/>
<path style=" stroke:none;fill-rule:evenodd;fill:rgb(100%,100%,100%);fill-opacity:1;" d="M 437.363281 501.804688 C 438.617188 501.804688 439.632813 502.820313 439.632813 504.078125 C 439.632813 505.332031 438.617188 506.347656 437.363281 506.347656 C 436.105469 506.347656 435.089844 505.332031 435.089844 504.078125 C 435.089844 502.820313 436.105469 501.804688 437.363281 501.804688 "/>
<path style=" stroke:none;fill-rule:evenodd;fill:rgb(100%,100%,100%);fill-opacity:1;" d="M 427.375 505.933594 C 428.210938 505.933594 428.890625 506.613281 428.890625 507.449219 C 428.890625 508.285156 428.210938 508.964844 427.375 508.964844 C 426.539063 508.964844 425.863281 508.285156 425.863281 507.449219 C 425.863281 506.613281 426.539063 505.933594 427.375 505.933594 "/>
<path style=" stroke:none;fill-rule:evenodd;fill:rgb(100%,100%,100%);fill-opacity:1;" d="M 409.886719 490.648438 C 411.105469 490.648438 412.089844 491.636719 412.089844 492.851563 C 412.089844 494.066406 411.105469 495.054688 409.886719 495.054688 C 408.671875 495.054688 407.683594 494.066406 407.683594 492.851563 C 407.683594 491.636719 408.671875 490.648438 409.886719 490.648438 "/>
<path style=" stroke:none;fill-rule:evenodd;fill:rgb(100%,100%,100%);fill-opacity:1;" d="M 406.167969 480.871094 C 407.082031 480.871094 407.820313 481.609375 407.820313 482.523438 C 407.820313 483.4375 407.082031 484.175781 406.167969 484.175781 C 405.253906 484.175781 404.515625 483.4375 404.515625 482.523438 C 404.515625 481.609375 405.253906 480.871094 406.167969 480.871094 "/>
<path style=" stroke:none;fill-rule:evenodd;fill:rgb(100%,100%,100%);fill-opacity:1;" d="M 380.070313 505.246094 C 381.097656 505.246094 381.929688 506.078125 381.929688 507.105469 C 381.929688 508.132813 381.097656 508.964844 380.070313 508.964844 C 379.042969 508.964844 378.210938 508.132813 378.210938 507.105469 C 378.210938 506.078125 379.042969 505.246094 380.070313 505.246094 "/>
<path style=" stroke:none;fill-rule:evenodd;fill:rgb(100%,100%,100%);fill-opacity:1;" d="M 379.246094 491.613281 C 380.425781 491.613281 381.378906 492.570313 381.378906 493.746094 C 381.378906 494.925781 380.425781 495.882813 379.246094 495.882813 C 378.066406 495.882813 377.109375 494.925781 377.109375 493.746094 C 377.109375 492.570313 378.066406 491.613281 379.246094 491.613281 "/>
<path style=" stroke:none;fill-rule:evenodd;fill:rgb(100%,100%,100%);fill-opacity:1;" d="M 373.046875 566.53125 C 374.148438 566.53125 375.042969 567.425781 375.042969 568.527344 C 375.042969 569.628906 374.148438 570.523438 373.046875 570.523438 C 371.945313 570.523438 371.050781 569.628906 371.050781 568.527344 C 371.050781 567.425781 371.945313 566.53125 373.046875 566.53125 "/>
<path style=" stroke:none;fill-rule:evenodd;fill:rgb(100%,100%,100%);fill-opacity:1;" d="M 365.542969 523.976563 C 366.605469 523.976563 367.46875 524.839844 367.46875 525.90625 C 367.46875 526.96875 366.605469 527.832031 365.542969 527.832031 C 364.476563 527.832031 363.613281 526.96875 363.613281 525.90625 C 363.613281 524.839844 364.476563 523.976563 365.542969 523.976563 "/>
<path style=" stroke:none;fill-rule:evenodd;fill:rgb(100%,100%,100%);fill-opacity:1;" d="M 365.953125 501.941406 C 366.941406 501.941406 367.746094 502.742188 367.746094 503.730469 C 367.746094 504.71875 366.941406 505.523438 365.953125 505.523438 C 364.964844 505.523438 364.164063 504.71875 364.164063 503.730469 C 364.164063 502.742188 364.964844 501.941406 365.953125 501.941406 "/>
<path style=" stroke:none;fill-rule:evenodd;fill:rgb(100%,100%,100%);fill-opacity:1;" d="M 309.214844 534.03125 C 310.28125 534.03125 311.144531 534.894531 311.144531 535.957031 C 311.144531 537.023438 310.28125 537.886719 309.214844 537.886719 C 308.148438 537.886719 307.289063 537.023438 307.289063 535.957031 C 307.289063 534.894531 308.148438 534.03125 309.214844 534.03125 "/>
<path style=" stroke:none;fill-rule:evenodd;fill:rgb(100%,100%,100%);fill-opacity:1;" d="M 270.859375 547.527344 C 271.8125 547.527344 272.582031 548.296875 272.582031 549.25 C 272.582031 550.199219 271.8125 550.96875 270.859375 550.96875 C 269.910156 550.96875 269.140625 550.199219 269.140625 549.25 C 269.140625 548.296875 269.910156 547.527344 270.859375 547.527344 "/>
<path style=" stroke:none;fill-rule:evenodd;fill:rgb(100%,100%,100%);fill-opacity:1;" d="M 210.820313 570.636719 C 211.816406 570.636719 212.621094 571.441406 212.621094 572.4375 C 212.621094 573.433594 211.816406 574.242188 210.820313 574.242188 C 209.824219 574.242188 209.015625 573.433594 209.015625 572.4375 C 209.015625 571.441406 209.824219 570.636719 210.820313 570.636719 "/>
<path style=" stroke:none;fill-rule:evenodd;fill:rgb(100%,100%,100%);fill-opacity:1;" d="M 227.160156 552.042969 C 228.246094 552.042969 229.128906 552.921875 229.128906 554.011719 C 229.128906 555.101563 228.246094 555.980469 227.160156 555.980469 C 226.070313 555.980469 225.1875 555.101563 225.1875 554.011719 C 225.1875 552.921875 226.070313 552.042969 227.160156 552.042969 "/>
<path style=" stroke:none;fill-rule:evenodd;fill:rgb(100%,100%,100%);fill-opacity:1;" d="M 205.199219 547.640625 C 206.191406 547.640625 206.996094 548.441406 206.996094 549.4375 C 206.996094 550.429688 206.191406 551.230469 205.199219 551.230469 C 204.207031 551.230469 203.402344 550.429688 203.402344 549.4375 C 203.402344 548.441406 204.207031 547.640625 205.199219 547.640625 "/>
<path style=" stroke:none;fill-rule:evenodd;fill:rgb(100%,100%,100%);fill-opacity:1;" d="M 224.78125 532.691406 C 225.96875 532.691406 226.925781 533.648438 226.925781 534.832031 C 226.925781 536.019531 225.96875 536.976563 224.78125 536.976563 C 223.597656 536.976563 222.640625 536.019531 222.640625 534.832031 C 222.640625 533.648438 223.597656 532.691406 224.78125 532.691406 "/>
<path style=" stroke:none;fill-rule:evenodd;fill:rgb(100%,100%,100%);fill-opacity:1;" d="M 165.566406 531.53125 C 167.003906 531.53125 168.171875 532.699219 168.171875 534.140625 C 168.171875 535.578125 167.003906 536.746094 165.566406 536.746094 C 164.125 536.746094 162.957031 535.578125 162.957031 534.140625 C 162.957031 532.699219 164.125 531.53125 165.566406 531.53125 "/>
<path style=" stroke:none;fill-rule:evenodd;fill:rgb(100%,100%,100%);fill-opacity:1;" d="M 157.859375 526.316406 C 158.882813 526.316406 159.710938 527.144531 159.710938 528.167969 C 159.710938 529.195313 158.882813 530.023438 157.859375 530.023438 C 156.835938 530.023438 156.007813 529.195313 156.007813 528.167969 C 156.007813 527.144531 156.835938 526.316406 157.859375 526.316406 "/>
<path style=" stroke:none;fill-rule:evenodd;fill:rgb(100%,100%,100%);fill-opacity:1;" d="M 139.203125 516.929688 C 140.355469 516.929688 141.289063 517.863281 141.289063 519.015625 C 141.289063 520.167969 140.355469 521.101563 139.203125 521.101563 C 138.050781 521.101563 137.117188 520.167969 137.117188 519.015625 C 137.117188 517.863281 138.050781 516.929688 139.203125 516.929688 "/>
<path style=" stroke:none;fill-rule:evenodd;fill:rgb(100%,100%,100%);fill-opacity:1;" d="M 160.582031 514.84375 C 161.769531 514.84375 162.726563 515.804688 162.726563 516.988281 C 162.726563 518.171875 161.769531 519.132813 160.582031 519.132813 C 159.398438 519.132813 158.4375 518.171875 158.4375 516.988281 C 158.4375 515.804688 159.398438 514.84375 160.582031 514.84375 "/>
<path style=" stroke:none;fill-rule:evenodd;fill:rgb(100%,100%,100%);fill-opacity:1;" d="M 190.769531 524.230469 C 191.792969 524.230469 192.625 525.058594 192.625 526.082031 C 192.625 527.109375 191.792969 527.9375 190.769531 527.9375 C 189.746094 527.9375 188.917969 527.109375 188.917969 526.082031 C 188.917969 525.058594 189.746094 524.230469 190.769531 524.230469 "/>
<path style=" stroke:none;fill-rule:evenodd;fill:rgb(100%,100%,100%);fill-opacity:1;" d="M 212.210938 505.34375 C 213.363281 505.34375 214.296875 506.277344 214.296875 507.425781 C 214.296875 508.578125 213.363281 509.511719 212.210938 509.511719 C 211.058594 509.511719 210.125 508.578125 210.125 507.425781 C 210.125 506.277344 211.058594 505.34375 212.210938 505.34375 "/>
<path style=" stroke:none;fill-rule:evenodd;fill:rgb(100%,100%,100%);fill-opacity:1;" d="M 211.574219 468.722656 C 212.4375 468.722656 213.136719 469.421875 213.136719 470.289063 C 213.136719 471.152344 212.4375 471.851563 211.574219 471.851563 C 210.707031 471.851563 210.007813 471.152344 210.007813 470.289063 C 210.007813 469.421875 210.707031 468.722656 211.574219 468.722656 "/>
<path style=" stroke:none;fill-rule:evenodd;fill:rgb(100%,100%,100%);fill-opacity:1;" d="M 210.820313 567.648438 L 211.898438 571.359375 L 215.609375 572.4375 L 211.898438 573.515625 L 210.820313 577.226563 L 209.742188 573.515625 L 206.03125 572.4375 L 209.742188 571.359375 Z M 210.820313 567.648438 "/>
<path style=" stroke:none;fill-rule:evenodd;fill:rgb(100%,100%,100%);fill-opacity:1;" d="M 413.535156 528.757813 L 414.613281 532.46875 L 418.324219 533.546875 L 414.613281 534.625 L 413.535156 538.335938 L 412.457031 534.625 L 408.746094 533.546875 L 412.457031 532.46875 Z M 413.535156 528.757813 "/>
<path style=" stroke:none;fill-rule:evenodd;fill:rgb(100%,100%,100%);fill-opacity:1;" d="M 430.957031 484.308594 L 432.261719 488.792969 L 436.746094 490.097656 L 432.261719 491.402344 L 430.957031 495.886719 L 429.652344 491.402344 L 425.167969 490.097656 L 429.652344 488.792969 Z M 430.957031 484.308594 "/>
<path style=" stroke:none;fill-rule:evenodd;fill:rgb(100%,100%,100%);fill-opacity:1;" d="M 229.847656 325.027344 L 231.148438 329.515625 L 235.636719 330.820313 L 231.148438 332.121094 L 229.847656 336.609375 L 228.542969 332.121094 L 224.054688 330.820313 L 228.542969 329.515625 Z M 229.847656 325.027344 "/>
<path style=" stroke:none;fill-rule:evenodd;fill:rgb(100%,100%,100%);fill-opacity:1;" d="M 322.265625 264.964844 L 323.570313 269.449219 L 328.058594 270.753906 L 323.570313 272.058594 L 322.265625 276.542969 L 320.964844 272.058594 L 316.476563 270.753906 L 320.964844 269.449219 Z M 322.265625 264.964844 "/>
<path style=" stroke:none;fill-rule:evenodd;fill:rgb(100%,100%,100%);fill-opacity:1;" d="M 247.007813 298.789063 C 248.054688 298.789063 248.90625 299.640625 248.90625 300.6875 C 248.90625 301.738281 248.054688 302.589844 247.007813 302.589844 C 245.957031 302.589844 245.109375 301.738281 245.109375 300.6875 C 245.109375 299.640625 245.957031 298.789063 247.007813 298.789063 "/>
<path style=" stroke:none;fill-rule:evenodd;fill:rgb(100%,100%,100%);fill-opacity:1;" d="M 255 293.941406 C 255.6875 293.941406 256.242188 294.5 256.242188 295.1875 C 256.242188 295.875 255.6875 296.433594 255 296.433594 C 254.3125 296.433594 253.753906 295.875 253.753906 295.1875 C 253.753906 294.5 254.3125 293.941406 255 293.941406 "/>
<path style=" stroke:none;fill-rule:evenodd;fill:rgb(100%,100%,100%);fill-opacity:1;" d="M 249.757813 290.144531 C 250.664063 290.144531 251.394531 290.875 251.394531 291.78125 C 251.394531 292.683594 250.664063 293.417969 249.757813 293.417969 C 248.855469 293.417969 248.121094 292.683594 248.121094 291.78125 C 248.121094 290.875 248.855469 290.144531 249.757813 290.144531 "/>
<path style=" stroke:none;fill-rule:evenodd;fill:rgb(100%,100%,100%);fill-opacity:1;" d="M 244.714844 287 C 245.511719 287 246.15625 287.644531 246.15625 288.441406 C 246.15625 289.234375 245.511719 289.882813 244.714844 289.882813 C 243.917969 289.882813 243.273438 289.234375 243.273438 288.441406 C 243.273438 287.644531 243.917969 287 244.714844 287 "/>
<path style=" stroke:none;fill-rule:evenodd;fill:rgb(100%,100%,100%);fill-opacity:1;" d="M 210.261719 325.777344 C 211.203125 325.777344 211.964844 326.539063 211.964844 327.480469 C 211.964844 328.417969 211.203125 329.183594 210.261719 329.183594 C 209.320313 329.183594 208.558594 328.417969 208.558594 327.480469 C 208.558594 326.539063 209.320313 325.777344 210.261719 325.777344 "/>
<path style=" stroke:none;fill-rule:evenodd;fill:rgb(100%,100%,100%);fill-opacity:1;" d="M 216.8125 333.503906 C 217.96875 333.503906 218.910156 334.445313 218.910156 335.601563 C 218.910156 336.757813 217.96875 337.699219 216.8125 337.699219 C 215.65625 337.699219 214.714844 336.757813 214.714844 335.601563 C 214.714844 334.445313 215.65625 333.503906 216.8125 333.503906 "/>
<path style=" stroke:none;fill-rule:evenodd;fill:rgb(100%,100%,100%);fill-opacity:1;" d="M 229.847656 328.578125 C 231.082031 328.578125 232.085938 329.582031 232.085938 330.820313 C 232.085938 332.054688 231.082031 333.058594 229.847656 333.058594 C 228.609375 333.058594 227.605469 332.054688 227.605469 330.820313 C 227.605469 329.582031 228.609375 328.578125 229.847656 328.578125 "/>
<path style=" stroke:none;fill-rule:evenodd;fill:rgb(100%,100%,100%);fill-opacity:1;" d="M 282.179688 248.617188 C 283.339844 248.617188 284.277344 249.554688 284.277344 250.710938 C 284.277344 251.871094 283.339844 252.808594 282.179688 252.808594 C 281.023438 252.808594 280.085938 251.871094 280.085938 250.710938 C 280.085938 249.554688 281.023438 248.617188 282.179688 248.617188 "/>
<path style=" stroke:none;fill-rule:evenodd;fill:rgb(100%,100%,100%);fill-opacity:1;" d="M 270.523438 270.757813 C 271.894531 270.757813 273.011719 271.871094 273.011719 273.246094 C 273.011719 274.617188 271.894531 275.734375 270.523438 275.734375 C 269.148438 275.734375 268.035156 274.617188 268.035156 273.246094 C 268.035156 271.871094 269.148438 270.757813 270.523438 270.757813 "/>
<path style=" stroke:none;fill-rule:evenodd;fill:rgb(100%,100%,100%);fill-opacity:1;" d="M 276.417969 287.394531 C 277.429688 287.394531 278.25 288.214844 278.25 289.226563 C 278.25 290.238281 277.429688 291.058594 276.417969 291.058594 C 275.40625 291.058594 274.582031 290.238281 274.582031 289.226563 C 274.582031 288.214844 275.40625 287.394531 276.417969 287.394531 "/>
<path style=" stroke:none;fill-rule:evenodd;fill:rgb(100%,100%,100%);fill-opacity:1;" d="M 293.449219 296.167969 C 294.460938 296.167969 295.28125 296.992188 295.28125 298.003906 C 295.28125 299.015625 294.460938 299.835938 293.449219 299.835938 C 292.433594 299.835938 291.613281 299.015625 291.613281 298.003906 C 291.613281 296.992188 292.433594 296.167969 293.449219 296.167969 "/>
<path style=" stroke:none;fill-rule:evenodd;fill:rgb(100%,100%,100%);fill-opacity:1;" d="M 293.25 272.984375 C 294.519531 272.984375 295.542969 274.007813 295.542969 275.273438 C 295.542969 276.542969 294.519531 277.566406 293.25 277.566406 C 291.984375 277.566406 290.960938 276.542969 290.960938 275.273438 C 290.960938 274.007813 291.984375 272.984375 293.25 272.984375 "/>
<path style=" stroke:none;fill-rule:evenodd;fill:rgb(100%,100%,100%);fill-opacity:1;" d="M 322.265625 268.667969 C 323.421875 268.667969 324.355469 269.601563 324.355469 270.753906 C 324.355469 271.90625 323.421875 272.84375 322.265625 272.84375 C 321.113281 272.84375 320.179688 271.90625 320.179688 270.753906 C 320.179688 269.601563 321.113281 268.667969 322.265625 268.667969 "/>
<path style=" stroke:none;fill-rule:evenodd;fill:rgb(100%,100%,100%);fill-opacity:1;" d="M 322.847656 313.332031 C 324.042969 313.332031 325.007813 314.296875 325.007813 315.492188 C 325.007813 316.6875 324.042969 317.652344 322.847656 317.652344 C 321.652344 317.652344 320.6875 316.6875 320.6875 315.492188 C 320.6875 314.296875 321.652344 313.332031 322.847656 313.332031 "/>
</g>
</svg>
