<svg width="128" height="128" style="enable-background:new 0 0 128 128;" xmlns="http://www.w3.org/2000/svg" xmlns:xlink="http://www.w3.org/1999/xlink">
  <g>
    <path d="M49.94,4.51l3.31,22.56c1.37,11.11,9.6,20.14,20.53,22.54l15.74,3.46l-15.74,3.46 c-10.93,2.4-19.16,11.43-20.53,22.54l-3.31,26.78l-3.31-26.78c-1.37-11.11-9.6-20.14-20.53-22.54l-15.74-3.46l15.74-3.46 c10.93-2.4,19.16-11.43,20.53-22.54L49.94,4.51z" style="fill:#FFEA00;"/>
    <g style="opacity:0.2;">
      <path d="M49.94,25.18l0.34,2.29C51.82,39.8,61,49.87,73.14,52.53l2.4,0.53l-2.4,0.53 c-12.15,2.67-21.34,12.76-22.86,25.1l-0.33,2.68l-0.33-2.68c-1.53-12.35-10.71-22.43-22.86-25.1l-2.4-0.53l2.4-0.53 c12.14-2.67,21.32-12.74,22.86-25.07L49.94,25.18 M49.94,4.51l-3.31,22.56c-1.37,11.11-9.6,20.14-20.53,22.54l-15.74,3.46 l15.74,3.46c10.93,2.4,19.16,11.43,20.53,22.54l3.31,26.78l3.31-26.78c1.37-11.11,9.6-20.14,20.53-22.54l15.74-3.46L73.78,49.6 c-10.93-2.4-19.16-11.43-20.53-22.54L49.94,4.51L49.94,4.51z" style="fill:#424242;"/>
    </g>
  </g>
  <path d="M97.12,9.01l1.71,12.04c0.71,6.42,4.98,11.64,10.64,13.03l8.16,2l-8.16,2 c-5.66,1.39-9.93,6.61-10.64,13.03l-1.71,15.48L95.41,51.1c-0.71-6.42-4.98-11.64-10.64-13.03l-8.16-2l8.16-2 c5.66-1.39,9.93-6.61,10.64-13.03L97.12,9.01z" style="fill:#FFF59D;"/>
  <g style="opacity:0.2;">
    <path d="M97.12,26.47c1.73,4.33,4.94,7.8,8.98,9.61c-4.03,1.81-7.25,5.28-8.98,9.61 c-1.73-4.33-4.94-7.8-8.98-9.61C92.18,34.27,95.4,30.79,97.12,26.47 M97.12,9.01l-1.71,12.04c-0.71,6.42-4.98,11.64-10.64,13.03 l-8.16,2l8.16,2c5.66,1.39,9.93,6.61,10.64,13.03l1.71,15.48l1.71-15.48c0.71-6.42,4.98-11.64,10.64-13.03l8.16-2l-8.16-2 c-5.66-1.39-9.93-6.61-10.64-13.03L97.12,9.01L97.12,9.01z" style="fill:#424242;"/>
  </g>
  <path d="M85.49,60.92l2.12,12.92c0.88,7.11,6.14,12.89,13.14,14.42l10.08,2.21l-10.08,2.21 c-6.99,1.54-12.26,7.32-13.14,14.42l-2.12,17.14l-2.12-17.14c-0.88-7.11-6.14-12.89-13.14-14.42l-10.08-2.21l10.08-2.21 c6.99-1.54,12.26-7.32,13.14-14.42L85.49,60.92z" style="fill:#FDD835;"/>
  <g style="opacity:0.2;">
    <path d="M85.49,78.02c1.91,5.76,6.38,10.38,12.13,12.45c-5.75,2.07-10.22,6.7-12.13,12.45 c-1.91-5.76-6.38-10.38-12.13-12.45C79.11,88.4,83.58,83.78,85.49,78.02 M85.49,60.92l-2.12,12.92 c-0.88,7.11-6.14,12.89-13.14,14.42l-10.08,2.21l10.08,2.21c6.99,1.54,12.26,7.32,13.14,14.42l2.12,17.14l2.12-17.14 c0.88-7.11,6.14-12.89,13.14-14.42l10.08-2.21l-10.08-2.21c-6.99-1.54-12.26-7.32-13.14-14.42L85.49,60.92L85.49,60.92z" style="fill:#424242;"/>
  </g>
</svg>