<?xml version="1.0" encoding="UTF-8"?>
<svg data-bx-workspace="master" xmlns="http://www.w3.org/2000/svg" xmlns:bx="https://boxy-svg.com" width="16" height="16" viewBox="0 0 16 16" fill="white">
<defs></defs>
<path d="M 8.882 9.961 L 9.635 9.042 L 15 9 L 15 10 L 8.882 9.961 Z M 11.458 6 L 15 6 L 15 7 L 11.498 6.958 L 11.458 6 Z M 15 3 L 15 4 L 9.532 3.96 L 8.565 2.918 L 15 3 Z M 6 12 L 6 13 L 15 13 L 15 12 L 6 12 Z" style="transform:translateX(2px)"></path>
<circle xmlns="http://www.w3.org/2000/svg" cx="4.6" cy="6.5" r="4.2" style="fill: rgb(0, 128, 218); stroke: rgb(0, 112, 218); stroke-width:0.1px;" transform="matrix(1.290361, 0, 0, 1.222578, -0.253393, -1.481738)"></circle>
<path xmlns="http://www.w3.org/2000/svg" d="M 7.69 3.869 C 7.402 3.581 7.105 3.29 6.857 3.626 L 3.794 8.128 L 1.843 6.256 C 1.478 5.89 0.914 7.522 1.092 7.696 L 3.533 9.781 C 3.664 9.911 3.839 9.972 4.01 9.942 C 4.192 9.927 4.358 9.83 4.479 9.665 L 8.198 4.799 C 8.443 4.461 8.325 4.486 8.039 4.196" fill="#f4f4f4" stroke="white" stroke-width="0.2px" style="transform:translateX(1px)"></path>
</svg>