<svg width="1444" height="779" xmlns="http://www.w3.org/2000/svg" xmlns:xlink="http://www.w3.org/1999/xlink" xml:space="preserve" overflow="hidden"><g transform="translate(-1356 -884)"><g><path d="M2237.54 889.003 2237.54 909.705C2284.63 909.705 2300.04 911.476 2318.97 938.084L2484.36 1180.89 2335.21 1398.68C2298.41 1451.93 2242.71 1452.87 2226.32 1452.87L2226.32 1473.57C2239.82 1472.45 2259.38 1472.12 2277.05 1472.01 2260 1580.79 2239.74 1639.56 2100.68 1639.56L1981.69 1639.56C1947.44 1639.56 1945.82 1635.24 1945.82 1605.75L1945.82 1366.2 2026.7 1366.2C2107.59 1366.2 2115.3 1395.83 2115.3 1468.16L2129.07 1468.16 2129.07 1245.21 2115.3 1245.21C2115.3 1316.33 2107.57 1345.4 2026.7 1345.4L1945.81 1345.4 1945.81 1133.02C1945.81 1104.08 1947.44 1099.76 1981.67 1099.76L2098.89 1099.76C2231.56 1099.76 2247.01 1152.47 2259.03 1265.78L2274.47 1265.78 2253.91 1076.23 1880.38 1076.23 1866.55 890.225 1371.47 890.225 1357 1079.76 1372.41 1079.76C1383.49 937.804 1395.67 912.949 1528.62 912.949L1575.95 912.949C1592.32 915.514 1592.32 925.928 1592.32 945.65L1592.32 1412.17C1592.32 1443.14 1589.73 1452.59 1517.51 1452.59L1493.17 1452.59 1493.17 1473.29C1534.31 1472.5 1577.17 1471.66 1619.22 1471.66 1661.15 1471.66 1704.14 1472.5 1745.25 1473.29L1745.25 1452.59 1721.33 1452.59C1650.18 1452.59 1647.62 1443.14 1647.62 1412.17L1647.62 945.673C1647.62 926.743 1647.62 916.472 1663.05 912.972L1710.1 912.972C1840.17 912.972 1853.9 937.33 1864.92 1076.23L1819.79 1076.23 1819.79 1099.77C1880.51 1099.77 1890.23 1099.77 1890.23 1138.29L1890.23 1600.78C1890.23 1639.3 1880.64 1639.3 1819.79 1639.3L1819.79 1660 2265.95 1660 2292.7 1471.95C2294.78 1471.95 2297.18 1471.94 2299.08 1471.94 2322.21 1471.94 2362.51 1471.94 2383.87 1473.57L2383.87 1452.87C2357.35 1450.31 2349.67 1433.15 2349.67 1419.34 2349.67 1408.26 2353.86 1402.18 2358.19 1396.08L2495.32 1196.02 2644.47 1415.15C2651.22 1424.63 2651.22 1427.19 2651.22 1429.75 2651.22 1436.5 2643.54 1451.25 2613.52 1453L2613.52 1473.71C2640.97 1472.08 2682.9 1472.08 2711.14 1472.08 2733.34 1472.08 2776.19 1472.08 2797 1473.71L2797 1453C2742.09 1453 2733.45 1448.81 2716.41 1424.62L2527.9 1148.97 2654.75 965.654C2667.45 947.66 2693.29 910.624 2763.64 909.688L2763.64 889C2744 890.63 2711.44 890.631 2690.87 890.631 2662.61 890.631 2627.43 890.63 2606.07 889L2606.07 909.703C2633.53 912.267 2640.28 929.426 2640.28 943.24 2640.28 953.483 2636.08 960.397 2630 968.911L2516.81 1133.01 2389.97 947.422C2384.02 938.085 2383.18 935.379 2383.18 932.814 2383.18 925.091 2392.52 910.501 2420.91 909.693L2420.91 889.003C2393.46 890.633 2351.53 890.634 2323.28 890.634 2301.08 890.634 2258.23 890.633 2237.52 889.003Z" fill="#FFFFFF" fill-rule="evenodd" fill-opacity="1"/></g></g></svg>